<?xml version="1.0" encoding="UTF-8" standalone="no"?>
<svg
   width="500"
   zoomAndPan="magnify"
   viewBox="0 0 375 374.999991"
   height="500"
   preserveAspectRatio="xMidYMid meet"
   version="1.2"
   id="svg74"
   sodipodi:docname="LOGO COMPLETO COLOR.svg"
   inkscape:version="1.3.2 (091e20e, 2023-11-25, custom)"
   xml:space="preserve"
   xmlns:inkscape="http://www.inkscape.org/namespaces/inkscape"
   xmlns:sodipodi="http://sodipodi.sourceforge.net/DTD/sodipodi-0.dtd"
   xmlns="http://www.w3.org/2000/svg"
   xmlns:svg="http://www.w3.org/2000/svg"><sodipodi:namedview
     id="namedview74"
     pagecolor="#ffffff"
     bordercolor="#000000"
     borderopacity="0.25"
     inkscape:showpageshadow="2"
     inkscape:pageopacity="0.0"
     inkscape:pagecheckerboard="0"
     inkscape:deskcolor="#d1d1d1"
     inkscape:zoom="0.87964084"
     inkscape:cx="215.99725"
     inkscape:cy="250.67049"
     inkscape:window-width="1600"
     inkscape:window-height="837"
     inkscape:window-x="-8"
     inkscape:window-y="-8"
     inkscape:window-maximized="1"
     inkscape:current-layer="e951e268c6" /><defs
     id="defs1"><rect
       x="155.85687"
       y="490.33621"
       width="495.58981"
       height="80.555235"
       id="rect1747" /></defs><g
     id="e951e268c6"
     transform="translate(0.60289368,-67.524115)"><g
       style="fill:#01283d;fill-opacity:1"
       id="g2"
       transform="matrix(1.5609397,0,0,1.5609397,-96.767986,-21.993481)"><g
         transform="translate(131.41406,218.29494)"
         id="g1"
         style="fill:#01283d;fill-opacity:1"><path
           style="stroke:none;fill:#01283d;fill-opacity:1"
           d="M 21.453125,-4.359375 V 0 H 1.25 V -3.46875 L 13.921875,-18.75 H 1.515625 v -4.34375 h 19.4375 v 3.453125 L 8.3125,-4.359375 Z m 0,0"
           id="path1" /></g></g><g
       style="fill:#01283d;fill-opacity:1"
       id="g4"
       transform="matrix(1.5609397,0,0,1.5609397,-96.767986,-21.993481)"><g
         transform="translate(153.31827,218.29494)"
         id="g3"
         style="fill:#01283d;fill-opacity:1"><path
           style="stroke:none;fill:#01283d;fill-opacity:1"
           d="M 13.921875,0.390625 C 11.523438,0.390625 9.363281,-0.125 7.4375,-1.15625 5.507812,-2.1875 4,-3.609375 2.90625,-5.421875 c -1.085938,-1.820313 -1.625,-3.863281 -1.625,-6.125 0,-2.269531 0.539062,-4.3125 1.625,-6.125 C 4,-19.484375 5.507812,-20.90625 7.4375,-21.9375 9.363281,-22.976562 11.523438,-23.5 13.921875,-23.5 c 2.394531,0 4.550781,0.523438 6.46875,1.5625 1.914063,1.03125 3.421875,2.453125 4.515625,4.265625 1.101562,1.8125 1.65625,3.855469 1.65625,6.125 0,2.261719 -0.554688,4.304687 -1.65625,6.125 -1.09375,1.8125 -2.601562,3.234375 -4.515625,4.265625 -1.917969,1.03125 -4.074219,1.546875 -6.46875,1.546875 z m 0,-4.546875 c 1.363281,0 2.59375,-0.3125 3.6875,-0.9375 1.101563,-0.625 1.96875,-1.5 2.59375,-2.625 0.632813,-1.125 0.953125,-2.398438 0.953125,-3.828125 0,-1.425781 -0.320312,-2.703125 -0.953125,-3.828125 -0.625,-1.125 -1.492187,-2 -2.59375,-2.625 -1.09375,-0.625 -2.324219,-0.9375 -3.6875,-0.9375 -1.367187,0 -2.601563,0.3125 -3.703125,0.9375 -1.09375,0.625 -1.953125,1.5 -2.578125,2.625 -0.625,1.125 -0.9375,2.402344 -0.9375,3.828125 0,1.429687 0.3125,2.703125 0.9375,3.828125 0.625,1.125 1.484375,2 2.578125,2.625 1.101562,0.625 2.335938,0.9375 3.703125,0.9375 z m 0,0"
           id="path2" /></g></g><g
       style="fill:#01283d;fill-opacity:1"
       id="g6"
       transform="matrix(1.5609397,0,0,1.5609397,-96.767986,-21.993481)"><g
         transform="translate(181.1604,218.29494)"
         id="g5"
         style="fill:#01283d;fill-opacity:1"><path
           style="stroke:none;fill:#01283d;fill-opacity:1"
           d="M 23.921875,-23.09375 V 0 H 19.53125 L 8.015625,-14.03125 V 0 H 2.734375 V -23.09375 H 7.15625 L 18.640625,-9.078125 V -23.09375 Z m 0,0"
           id="path4" /></g></g><g
       style="fill:#01283d;fill-opacity:1"
       id="g8"
       transform="matrix(1.5609397,0,0,1.5609397,-96.767986,-21.993481)"><g
         transform="translate(207.81496,218.29494)"
         id="g7"
         style="fill:#01283d;fill-opacity:1"><path
           style="stroke:none;fill:#01283d;fill-opacity:1"
           d="M 17.953125,-4.953125 H 7.234375 L 5.1875,0 H -0.296875 L 10,-23.09375 h 5.28125 L 25.609375,0 H 20 Z m -1.6875,-4.0625 -3.65625,-8.84375 -3.671875,8.84375 z m 0,0"
           id="path6" /></g></g><g
       style="fill:#01283d;fill-opacity:1"
       id="g10"
       transform="matrix(1.5609397,0,0,1.5609397,-96.767986,-21.993481)"><g
         transform="translate(69.457031,249.79494)"
         id="g9"
         style="fill:#01283d;fill-opacity:1"><path
           style="stroke:none;fill:#01283d;fill-opacity:1"
           d="m 2.734375,-23.09375 h 5.34375 V 0 h -5.34375 z m 0,0"
           id="path8" /></g></g><g
       style="fill:#01283d;fill-opacity:1"
       id="g12"
       transform="matrix(1.5609397,0,0,1.5609397,-96.767986,-21.993481)"><g
         transform="translate(80.277202,249.79494)"
         id="g11"
         style="fill:#01283d;fill-opacity:1"><path
           style="stroke:none;fill:#01283d;fill-opacity:1"
           d="M 23.921875,-23.09375 V 0 H 19.53125 L 8.015625,-14.03125 V 0 H 2.734375 V -23.09375 H 7.15625 L 18.640625,-9.078125 V -23.09375 Z m 0,0"
           id="path10" /></g></g><g
       style="fill:#01283d;fill-opacity:1"
       id="g14"
       transform="matrix(1.5609397,0,0,1.5609397,-96.767986,-21.993481)"><g
         transform="translate(106.79979,249.79494)"
         id="g13"
         style="fill:#01283d;fill-opacity:1"><path
           style="stroke:none;fill:#01283d;fill-opacity:1"
           d="M 24.953125,-23.09375 14.953125,0 h -5.28125 l -9.96875,-23.09375 h 5.78125 l 7.015625,16.5 7.140625,-16.5 z m 0,0"
           id="path12" /></g></g><g
       style="fill:#01283d;fill-opacity:1"
       id="g16"
       transform="matrix(1.5609397,0,0,1.5609397,-96.767986,-21.993481)"><g
         transform="translate(130.91418,249.79494)"
         id="g15"
         style="fill:#01283d;fill-opacity:1"><path
           style="stroke:none;fill:#01283d;fill-opacity:1"
           d="M 20.625,-4.296875 V 0 H 2.734375 v -23.09375 h 17.46875 v 4.28125 H 8.046875 v 5.015625 H 18.78125 v 4.15625 H 8.046875 v 5.34375 z m 0,0"
           id="path14" /></g></g><g
       style="fill:#01283d;fill-opacity:1"
       id="g18"
       transform="matrix(1.5609397,0,0,1.5609397,-96.767986,-21.993481)"><g
         transform="translate(153.04933,249.79494)"
         id="g17"
         style="fill:#01283d;fill-opacity:1"><path
           style="stroke:none;fill:#01283d;fill-opacity:1"
           d="M 23.921875,-23.09375 V 0 H 19.53125 L 8.015625,-14.03125 V 0 H 2.734375 V -23.09375 H 7.15625 L 18.640625,-9.078125 V -23.09375 Z m 0,0"
           id="path16" /></g></g><g
       style="fill:#01283d;fill-opacity:1"
       id="g20"
       transform="matrix(1.5609397,0,0,1.5609397,-96.767986,-21.993481)"><g
         transform="translate(179.70389,249.79494)"
         id="g19"
         style="fill:#01283d;fill-opacity:1"><path
           style="stroke:none;fill:#01283d;fill-opacity:1"
           d="M 7.53125,-18.75 H 0.125 v -4.34375 H 20.265625 V -18.75 H 12.875 V 0 H 7.53125 Z m 0,0"
           id="path18" /></g></g><g
       style="fill:#01283d;fill-opacity:1"
       id="g22"
       transform="matrix(1.5609397,0,0,1.5609397,-96.767986,-21.993481)"><g
         transform="translate(199.76074,249.79494)"
         id="g21"
         style="fill:#01283d;fill-opacity:1"><path
           style="stroke:none;fill:#01283d;fill-opacity:1"
           d="M 13.921875,0.390625 C 11.523438,0.390625 9.363281,-0.125 7.4375,-1.15625 5.507812,-2.1875 4,-3.609375 2.90625,-5.421875 c -1.085938,-1.820313 -1.625,-3.863281 -1.625,-6.125 0,-2.269531 0.539062,-4.3125 1.625,-6.125 C 4,-19.484375 5.507812,-20.90625 7.4375,-21.9375 9.363281,-22.976562 11.523438,-23.5 13.921875,-23.5 c 2.394531,0 4.550781,0.523438 6.46875,1.5625 1.914063,1.03125 3.421875,2.453125 4.515625,4.265625 1.101562,1.8125 1.65625,3.855469 1.65625,6.125 0,2.261719 -0.554688,4.304687 -1.65625,6.125 -1.09375,1.8125 -2.601562,3.234375 -4.515625,4.265625 -1.917969,1.03125 -4.074219,1.546875 -6.46875,1.546875 z m 0,-4.546875 c 1.363281,0 2.59375,-0.3125 3.6875,-0.9375 1.101563,-0.625 1.96875,-1.5 2.59375,-2.625 0.632813,-1.125 0.953125,-2.398438 0.953125,-3.828125 0,-1.425781 -0.320312,-2.703125 -0.953125,-3.828125 -0.625,-1.125 -1.492187,-2 -2.59375,-2.625 -1.09375,-0.625 -2.324219,-0.9375 -3.6875,-0.9375 -1.367187,0 -2.601563,0.3125 -3.703125,0.9375 -1.09375,0.625 -1.953125,1.5 -2.578125,2.625 -0.625,1.125 -0.9375,2.402344 -0.9375,3.828125 0,1.429687 0.3125,2.703125 0.9375,3.828125 0.625,1.125 1.484375,2 2.578125,2.625 1.101562,0.625 2.335938,0.9375 3.703125,0.9375 z m 0,0"
           id="path20" /></g></g><g
       style="fill:#01283d;fill-opacity:1"
       id="g24"
       transform="matrix(1.5609397,0,0,1.5609397,-96.767986,-21.993481)"><g
         transform="translate(227.60288,249.79494)"
         id="g23"
         style="fill:#01283d;fill-opacity:1"><path
           style="stroke:none;fill:#01283d;fill-opacity:1"
           d="M 17.453125,0 13,-6.4375 H 8.078125 V 0 h -5.34375 v -23.09375 h 10 c 2.050781,0 3.828125,0.34375 5.328125,1.03125 1.507812,0.679688 2.671875,1.640625 3.484375,2.890625 0.8125,1.25 1.21875,2.734375 1.21875,4.453125 0,1.71875 -0.414063,3.199219 -1.234375,4.4375 -0.824219,1.242188 -1.996094,2.195312 -3.515625,2.859375 L 23.203125,0 Z m -0.09375,-14.71875 c 0,-1.300781 -0.421875,-2.296875 -1.265625,-2.984375 C 15.257812,-18.398438 14.039062,-18.75 12.4375,-18.75 H 8.078125 v 8.0625 H 12.4375 c 1.601562,0 2.820312,-0.347656 3.65625,-1.046875 0.84375,-0.707031 1.265625,-1.703125 1.265625,-2.984375 z m 0,0"
           id="path22" /></g></g><g
       style="fill:#01283d;fill-opacity:1"
       id="g26"
       transform="matrix(1.5609397,0,0,1.5609397,-96.767986,-21.993481)"><g
         transform="translate(251.84928,249.79494)"
         id="g25"
         style="fill:#01283d;fill-opacity:1"><path
           style="stroke:none;fill:#01283d;fill-opacity:1"
           d="M 20.625,-4.296875 V 0 H 2.734375 v -23.09375 h 17.46875 v 4.28125 H 8.046875 v 5.015625 H 18.78125 v 4.15625 H 8.046875 v 5.34375 z m 0,0"
           id="path24" /></g></g><g
       style="fill:#01283d;fill-opacity:1"
       id="g28"
       transform="matrix(1.5609397,0,0,1.5609397,-96.767986,-21.993481)"><g
         transform="translate(273.98443,249.79494)"
         id="g27"
         style="fill:#01283d;fill-opacity:1"><path
           style="stroke:none;fill:#01283d;fill-opacity:1"
           d="m 10.328125,0.390625 c -1.824219,0 -3.589844,-0.246094 -5.296875,-0.734375 -1.710938,-0.5 -3.078125,-1.144531 -4.109375,-1.9375 l 1.8125,-4.015625 c 0.988281,0.71875 2.164063,1.304687 3.53125,1.75 1.363281,0.4375 2.726563,0.65625 4.09375,0.65625 1.519531,0 2.640625,-0.222656 3.359375,-0.671875 0.726562,-0.457031 1.09375,-1.0625 1.09375,-1.8125 0,-0.539062 -0.214844,-0.992188 -0.640625,-1.359375 -0.429687,-0.363281 -0.980469,-0.65625 -1.65625,-0.875 -0.667969,-0.21875 -1.574219,-0.460937 -2.71875,-0.734375 -1.761719,-0.414062 -3.203125,-0.832031 -4.328125,-1.25 -1.117188,-0.414062 -2.074219,-1.082031 -2.875,-2 -0.804688,-0.925781 -1.203125,-2.160156 -1.203125,-3.703125 0,-1.34375 0.359375,-2.554687 1.078125,-3.640625 0.726562,-1.09375 1.820312,-1.957031 3.28125,-2.59375 1.46875,-0.644531 3.257812,-0.96875 5.375,-0.96875 1.46875,0 2.90625,0.179688 4.3125,0.53125 1.414062,0.355469 2.648438,0.859375 3.703125,1.515625 l -1.65625,4.0625 c -2.136719,-1.207031 -4.265625,-1.8125 -6.390625,-1.8125 -1.5,0 -2.609375,0.246094 -3.328125,0.734375 -0.710937,0.480469 -1.0625,1.117188 -1.0625,1.90625 0,0.792969 0.410156,1.382812 1.234375,1.765625 0.820312,0.386719 2.082031,0.765625 3.78125,1.140625 1.757812,0.417969 3.195312,0.835938 4.3125,1.25 1.125,0.417969 2.085938,1.078125 2.890625,1.984375 0.800781,0.898437 1.203125,2.117187 1.203125,3.65625 0,1.324219 -0.371094,2.53125 -1.109375,3.625 -0.730469,1.085937 -1.835937,1.945313 -3.3125,2.578125 -1.46875,0.6328125 -3.261719,0.953125 -5.375,0.953125 z m 0,0"
           id="path26" /></g></g><g
       style="fill:#f6a800;fill-opacity:1"
       id="g30"
       transform="matrix(1.5609397,0,0,1.5609397,-96.767986,-21.993481)"><g
         transform="translate(76.992187,274.16992)"
         id="g29"
         style="fill:#f6a800;fill-opacity:1"><path
           style="stroke:none;fill:#f6a800;fill-opacity:1"
           d="m 5.859375,0.171875 c -1,0 -1.90625,-0.21875 -2.71875,-0.65625 -0.804687,-0.4375 -1.4375,-1.035156 -1.90625,-1.796875 -0.460937,-0.769531 -0.6875,-1.644531 -0.6875,-2.625 0,-0.96875 0.226563,-1.835938 0.6875,-2.609375 0.46875,-0.769531 1.101563,-1.367187 1.90625,-1.796875 0.8125,-0.4375 1.71875,-0.65625 2.71875,-0.65625 0.851563,0 1.625,0.152344 2.3125,0.453125 0.6875,0.292969 1.257813,0.71875 1.71875,1.28125 L 8.4375,-6.890625 C 7.78125,-7.648438 6.960938,-8.03125 5.984375,-8.03125 5.367188,-8.03125 4.820312,-7.894531 4.34375,-7.625 3.875,-7.363281 3.503906,-6.992188 3.234375,-6.515625 2.972656,-6.046875 2.84375,-5.507812 2.84375,-4.90625 c 0,0.617188 0.128906,1.164062 0.390625,1.640625 0.269531,0.46875 0.640625,0.839844 1.109375,1.109375 0.476562,0.261719 1.023438,0.390625 1.640625,0.390625 0.976563,0 1.796875,-0.382813 2.453125,-1.15625 l 1.453125,1.34375 C 9.429688,-1.015625 8.851562,-0.582031 8.15625,-0.28125 7.46875,0.0195312 6.703125,0.171875 5.859375,0.171875 Z m 0,0"
           id="path28" /></g></g><g
       style="fill:#f6a800;fill-opacity:1"
       id="g32"
       transform="matrix(1.5609397,0,0,1.5609397,-96.767986,-21.993481)"><g
         transform="translate(87.248461,274.16992)"
         id="g31"
         style="fill:#f6a800;fill-opacity:1"><path
           style="stroke:none;fill:#f6a800;fill-opacity:1"
           d="M 7.40625,0 5.515625,-2.734375 H 3.4375 V 0 H 1.15625 v -9.796875 h 4.25 c 0.863281,0 1.613281,0.148437 2.25,0.4375 0.644531,0.28125 1.140625,0.6875 1.484375,1.21875 0.34375,0.53125 0.515625,1.164063 0.515625,1.890625 0,0.730469 -0.179688,1.359375 -0.53125,1.890625 -0.34375,0.53125 -0.839844,0.933594 -1.484375,1.203125 L 9.84375,0 Z M 7.359375,-6.25 c 0,-0.539062 -0.179687,-0.957031 -0.53125,-1.25 C 6.472656,-7.800781 5.957031,-7.953125 5.28125,-7.953125 H 3.4375 v 3.421875 h 1.84375 c 0.675781,0 1.191406,-0.148438 1.546875,-0.453125 0.351563,-0.300781 0.53125,-0.722656 0.53125,-1.265625 z m 0,0"
           id="path30" /></g></g><g
       style="fill:#f6a800;fill-opacity:1"
       id="g34"
       transform="matrix(1.5609397,0,0,1.5609397,-96.767986,-21.993481)"><g
         transform="translate(97.532717,274.16992)"
         id="g33"
         style="fill:#f6a800;fill-opacity:1"><path
           style="stroke:none;fill:#f6a800;fill-opacity:1"
           d="M 8.75,-1.8125 V 0 H 1.15625 V -9.796875 H 8.5625 v 1.8125 H 3.421875 v 2.125 H 7.96875 V -4.09375 H 3.421875 v 2.28125 z m 0,0"
           id="path32" /></g></g><g
       style="fill:#f6a800;fill-opacity:1"
       id="g36"
       transform="matrix(1.5609397,0,0,1.5609397,-96.767986,-21.993481)"><g
         transform="translate(106.92147,274.16992)"
         id="g35"
         style="fill:#f6a800;fill-opacity:1"><path
           style="stroke:none;fill:#f6a800;fill-opacity:1"
           d="M 7.609375,-2.09375 H 3.0625 L 2.203125,0 H -0.125 l 4.359375,-9.796875 h 2.25 L 10.859375,0 h -2.375 z m -0.703125,-1.734375 -1.5625,-3.75 -1.546875,3.75 z m 0,0"
           id="path34" /></g></g><g
       style="fill:#f6a800;fill-opacity:1"
       id="g38"
       transform="matrix(1.5609397,0,0,1.5609397,-96.767986,-21.993481)"><g
         transform="translate(118.08733,274.16992)"
         id="g37"
         style="fill:#f6a800;fill-opacity:1"><path
           style="stroke:none;fill:#f6a800;fill-opacity:1"
           d="m 1.84375,-2.609375 c 0.394531,0 0.71875,0.125 0.96875,0.375 0.25,0.25 0.375,0.574219 0.375,0.96875 0,0.1875 -0.027344,0.375 -0.078125,0.5625 -0.042969,0.1875 -0.140625,0.46875 -0.296875,0.84375 L 2.015625,2.15625 H 0.625 L 1.25,-0.0625 C 1.007812,-0.15625 0.820312,-0.304688 0.6875,-0.515625 c -0.136719,-0.21875 -0.203125,-0.46875 -0.203125,-0.75 0,-0.394531 0.128906,-0.71875 0.390625,-0.96875 0.257812,-0.25 0.582031,-0.375 0.96875,-0.375 z m 0,0"
           id="path36" /></g></g><g
       style="fill:#000000;fill-opacity:1"
       id="g40"><g
         transform="translate(121.75329,274.16992)"
         id="g39"><path
           style="stroke:none"
           d=""
           id="path38" /></g></g><g
       style="fill:#f6a800;fill-opacity:1"
       id="g42"
       transform="matrix(1.5609397,0,0,1.5609397,-96.767986,-21.993481)"><g
         transform="translate(125.71308,274.16992)"
         id="g41"
         style="fill:#f6a800;fill-opacity:1"><path
           style="stroke:none;fill:#f6a800;fill-opacity:1"
           d="m 5.40625,-9.796875 c 0.863281,0 1.613281,0.148437 2.25,0.4375 0.644531,0.28125 1.140625,0.6875 1.484375,1.21875 0.34375,0.53125 0.515625,1.164063 0.515625,1.890625 0,0.71875 -0.171875,1.351562 -0.515625,1.890625 -0.34375,0.53125 -0.839844,0.945313 -1.484375,1.234375 -0.636719,0.28125 -1.386719,0.421875 -2.25,0.421875 H 3.4375 V 0 H 1.15625 v -9.796875 z m -0.125,5.25 c 0.675781,0 1.191406,-0.144531 1.546875,-0.4375 0.351563,-0.300781 0.53125,-0.722656 0.53125,-1.265625 0,-0.539062 -0.179687,-0.957031 -0.53125,-1.25 C 6.472656,-7.800781 5.957031,-7.953125 5.28125,-7.953125 H 3.4375 v 3.40625 z m 0,0"
           id="path40" /></g></g><g
       style="fill:#f6a800;fill-opacity:1"
       id="g44"
       transform="matrix(1.5609397,0,0,1.5609397,-96.767986,-21.993481)"><g
         transform="translate(135.81541,274.16992)"
         id="g43"
         style="fill:#f6a800;fill-opacity:1"><path
           style="stroke:none;fill:#f6a800;fill-opacity:1"
           d="M 7.40625,0 5.515625,-2.734375 H 3.4375 V 0 H 1.15625 v -9.796875 h 4.25 c 0.863281,0 1.613281,0.148437 2.25,0.4375 0.644531,0.28125 1.140625,0.6875 1.484375,1.21875 0.34375,0.53125 0.515625,1.164063 0.515625,1.890625 0,0.730469 -0.179688,1.359375 -0.53125,1.890625 -0.34375,0.53125 -0.839844,0.933594 -1.484375,1.203125 L 9.84375,0 Z M 7.359375,-6.25 c 0,-0.539062 -0.179687,-0.957031 -0.53125,-1.25 C 6.472656,-7.800781 5.957031,-7.953125 5.28125,-7.953125 H 3.4375 v 3.421875 h 1.84375 c 0.675781,0 1.191406,-0.148438 1.546875,-0.453125 0.351563,-0.300781 0.53125,-0.722656 0.53125,-1.265625 z m 0,0"
           id="path42" /></g></g><g
       style="fill:#f6a800;fill-opacity:1"
       id="g46"
       transform="matrix(1.5609397,0,0,1.5609397,-96.767986,-21.993481)"><g
         transform="translate(146.09966,274.16992)"
         id="g45"
         style="fill:#f6a800;fill-opacity:1"><path
           style="stroke:none;fill:#f6a800;fill-opacity:1"
           d="m 5.90625,0.171875 c -1.023438,0 -1.9375,-0.21875 -2.75,-0.65625 -0.8125,-0.4375 -1.453125,-1.039063 -1.921875,-1.8125 -0.460937,-0.769531 -0.6875,-1.640625 -0.6875,-2.609375 0,-0.957031 0.226563,-1.820312 0.6875,-2.59375 0.46875,-0.769531 1.109375,-1.375 1.921875,-1.8125 0.8125,-0.4375 1.726562,-0.65625 2.75,-0.65625 1.019531,0 1.9375,0.21875 2.75,0.65625 0.8125,0.4375 1.445312,1.042969 1.90625,1.8125 0.46875,0.773438 0.703125,1.636719 0.703125,2.59375 0,0.96875 -0.234375,1.839844 -0.703125,2.609375 -0.460938,0.773437 -1.09375,1.375 -1.90625,1.8125 -0.8125,0.4375 -1.730469,0.65625 -2.75,0.65625 z m 0,-1.9375 c 0.582031,0 1.101562,-0.128906 1.5625,-0.390625 C 7.9375,-2.425781 8.300781,-2.796875 8.5625,-3.265625 8.832031,-3.742188 8.96875,-4.289062 8.96875,-4.90625 8.96875,-5.507812 8.832031,-6.046875 8.5625,-6.515625 8.300781,-6.992188 7.9375,-7.363281 7.46875,-7.625 7.007812,-7.894531 6.488281,-8.03125 5.90625,-8.03125 c -0.574219,0 -1.09375,0.136719 -1.5625,0.40625 -0.46875,0.261719 -0.839844,0.632812 -1.109375,1.109375 -0.261719,0.46875 -0.390625,1.007813 -0.390625,1.609375 0,0.617188 0.128906,1.164062 0.390625,1.640625 0.269531,0.46875 0.640625,0.839844 1.109375,1.109375 0.46875,0.261719 0.988281,0.390625 1.5625,0.390625 z m 0,0"
           id="path44" /></g></g><g
       style="fill:#f6a800;fill-opacity:1"
       id="g48"
       transform="matrix(1.5609397,0,0,1.5609397,-96.767986,-21.993481)"><g
         transform="translate(157.90907,274.16992)"
         id="g47"
         style="fill:#f6a800;fill-opacity:1"><path
           style="stroke:none;fill:#f6a800;fill-opacity:1"
           d="m 7.78125,-5.046875 h 2.078125 v 3.96875 c -0.53125,0.40625 -1.152344,0.71875 -1.859375,0.9375 -0.699219,0.2070312 -1.402344,0.3125 -2.109375,0.3125 -1.011719,0 -1.921875,-0.21875 -2.734375,-0.65625 -0.8125,-0.4375 -1.453125,-1.035156 -1.921875,-1.796875 -0.460937,-0.769531 -0.6875,-1.644531 -0.6875,-2.625 0,-0.96875 0.226563,-1.835938 0.6875,-2.609375 0.46875,-0.769531 1.109375,-1.367187 1.921875,-1.796875 0.820312,-0.4375 1.75,-0.65625 2.78125,-0.65625 0.851562,0 1.628906,0.148438 2.328125,0.4375 0.707031,0.292969 1.296875,0.710938 1.765625,1.25 L 8.578125,-6.9375 c -0.699219,-0.726562 -1.542969,-1.09375 -2.53125,-1.09375 -0.625,0 -1.183594,0.132812 -1.671875,0.390625 -0.480469,0.261719 -0.855469,0.632813 -1.125,1.109375 -0.273438,0.46875 -0.40625,1.011719 -0.40625,1.625 0,0.617188 0.132812,1.164062 0.40625,1.640625 0.269531,0.46875 0.644531,0.839844 1.125,1.109375 0.476562,0.261719 1.023438,0.390625 1.640625,0.390625 0.65625,0 1.242187,-0.140625 1.765625,-0.421875 z m 0,0"
           id="path46" /></g></g><g
       style="fill:#f6a800;fill-opacity:1"
       id="g50"
       transform="matrix(1.5609397,0,0,1.5609397,-96.767986,-21.993481)"><g
         transform="translate(168.69705,274.16992)"
         id="g49"
         style="fill:#f6a800;fill-opacity:1"><path
           style="stroke:none;fill:#f6a800;fill-opacity:1"
           d="M 7.40625,0 5.515625,-2.734375 H 3.4375 V 0 H 1.15625 v -9.796875 h 4.25 c 0.863281,0 1.613281,0.148437 2.25,0.4375 0.644531,0.28125 1.140625,0.6875 1.484375,1.21875 0.34375,0.53125 0.515625,1.164063 0.515625,1.890625 0,0.730469 -0.179688,1.359375 -0.53125,1.890625 -0.34375,0.53125 -0.839844,0.933594 -1.484375,1.203125 L 9.84375,0 Z M 7.359375,-6.25 c 0,-0.539062 -0.179687,-0.957031 -0.53125,-1.25 C 6.472656,-7.800781 5.957031,-7.953125 5.28125,-7.953125 H 3.4375 v 3.421875 h 1.84375 c 0.675781,0 1.191406,-0.148438 1.546875,-0.453125 0.351563,-0.300781 0.53125,-0.722656 0.53125,-1.265625 z m 0,0"
           id="path48" /></g></g><g
       style="fill:#f6a800;fill-opacity:1"
       id="g52"
       transform="matrix(1.5609397,0,0,1.5609397,-96.767986,-21.993481)"><g
         transform="translate(178.98131,274.16992)"
         id="g51"
         style="fill:#f6a800;fill-opacity:1"><path
           style="stroke:none;fill:#f6a800;fill-opacity:1"
           d="M 7.609375,-2.09375 H 3.0625 L 2.203125,0 H -0.125 l 4.359375,-9.796875 h 2.25 L 10.859375,0 h -2.375 z m -0.703125,-1.734375 -1.5625,-3.75 -1.546875,3.75 z m 0,0"
           id="path50" /></g></g><g
       style="fill:#f6a800;fill-opacity:1"
       id="g54"
       transform="matrix(1.5609397,0,0,1.5609397,-96.767986,-21.993481)"><g
         transform="translate(189.69933,274.16992)"
         id="g53"
         style="fill:#f6a800;fill-opacity:1"><path
           style="stroke:none;fill:#f6a800;fill-opacity:1"
           d="M 10.078125,0 10.0625,-5.875 7.1875,-1.03125 H 6.15625 L 3.296875,-5.75 V 0 H 1.15625 v -9.796875 h 1.875 l 3.671875,6.09375 3.609375,-6.09375 h 1.875 L 12.203125,0 Z m 0,0"
           id="path52" /></g></g><g
       style="fill:#f6a800;fill-opacity:1"
       id="g56"
       transform="matrix(1.5609397,0,0,1.5609397,-96.767986,-21.993481)"><g
         transform="translate(203.06187,274.16992)"
         id="g55"
         style="fill:#f6a800;fill-opacity:1"><path
           style="stroke:none;fill:#f6a800;fill-opacity:1"
           d="M 7.609375,-2.09375 H 3.0625 L 2.203125,0 H -0.125 l 4.359375,-9.796875 h 2.25 L 10.859375,0 h -2.375 z m -0.703125,-1.734375 -1.5625,-3.75 -1.546875,3.75 z m 0,0"
           id="path54" /></g></g><g
       style="fill:#f6a800;fill-opacity:1"
       id="g58"
       transform="matrix(1.5609397,0,0,1.5609397,-96.767986,-21.993481)"><g
         transform="translate(214.22774,274.16992)"
         id="g57"
         style="fill:#f6a800;fill-opacity:1"><path
           style="stroke:none;fill:#f6a800;fill-opacity:1"
           d="m 1.84375,-2.609375 c 0.394531,0 0.71875,0.125 0.96875,0.375 0.25,0.25 0.375,0.574219 0.375,0.96875 0,0.1875 -0.027344,0.375 -0.078125,0.5625 -0.042969,0.1875 -0.140625,0.46875 -0.296875,0.84375 L 2.015625,2.15625 H 0.625 L 1.25,-0.0625 C 1.007812,-0.15625 0.820312,-0.304688 0.6875,-0.515625 c -0.136719,-0.21875 -0.203125,-0.46875 -0.203125,-0.75 0,-0.394531 0.128906,-0.71875 0.390625,-0.96875 0.257812,-0.25 0.582031,-0.375 0.96875,-0.375 z m 0,0"
           id="path56" /></g></g><g
       style="fill:#000000;fill-opacity:1"
       id="g60"><g
         transform="translate(217.89369,274.16992)"
         id="g59"><path
           style="stroke:none"
           d=""
           id="path58" /></g></g><g
       style="fill:#f6a800;fill-opacity:1"
       id="g62"
       transform="matrix(1.5609397,0,0,1.5609397,-96.767986,-21.993481)"><g
         transform="translate(221.85348,274.16992)"
         id="g61"
         style="fill:#f6a800;fill-opacity:1"><path
           style="stroke:none;fill:#f6a800;fill-opacity:1"
           d="M 1.15625,-9.796875 H 3.4375 V 0 H 1.15625 Z m 0,0"
           id="path60" /></g></g><g
       style="fill:#f6a800;fill-opacity:1"
       id="g64"
       transform="matrix(1.5609397,0,0,1.5609397,-96.767986,-21.993481)"><g
         transform="translate(226.44292,274.16992)"
         id="g63"
         style="fill:#f6a800;fill-opacity:1"><path
           style="stroke:none;fill:#f6a800;fill-opacity:1"
           d="M 10.15625,-9.796875 V 0 h -1.875 l -4.875,-5.953125 V 0 h -2.25 v -9.796875 h 1.875 l 4.875,5.953125 v -5.953125 z m 0,0"
           id="path62" /></g></g><g
       style="fill:#f6a800;fill-opacity:1"
       id="g66"
       transform="matrix(1.5609397,0,0,1.5609397,-96.767986,-21.993481)"><g
         transform="translate(237.69262,274.16992)"
         id="g65"
         style="fill:#f6a800;fill-opacity:1"><path
           style="stroke:none;fill:#f6a800;fill-opacity:1"
           d="M 10.578125,-9.796875 6.34375,0 H 4.109375 L -0.125,-9.796875 h 2.453125 l 2.984375,7 3.015625,-7 z m 0,0"
           id="path64" /></g></g><g
       style="fill:#f6a800;fill-opacity:1"
       id="g68"
       transform="matrix(1.5609397,0,0,1.5609397,-96.767986,-21.993481)"><g
         transform="translate(247.92087,274.16992)"
         id="g67"
         style="fill:#f6a800;fill-opacity:1"><path
           style="stroke:none;fill:#f6a800;fill-opacity:1"
           d="M 8.75,-1.8125 V 0 H 1.15625 V -9.796875 H 8.5625 v 1.8125 H 3.421875 v 2.125 H 7.96875 V -4.09375 H 3.421875 v 2.28125 z m 0,0"
           id="path66" /></g></g><g
       style="fill:#f6a800;fill-opacity:1"
       id="g70"
       transform="matrix(1.5609397,0,0,1.5609397,-96.767986,-21.993481)"><g
         transform="translate(257.30962,274.16992)"
         id="g69"
         style="fill:#f6a800;fill-opacity:1"><path
           style="stroke:none;fill:#f6a800;fill-opacity:1"
           d="M 10.15625,-9.796875 V 0 h -1.875 l -4.875,-5.953125 V 0 h -2.25 v -9.796875 h 1.875 l 4.875,5.953125 v -5.953125 z m 0,0"
           id="path68" /></g></g><g
       style="fill:#f6a800;fill-opacity:1"
       id="g72"
       transform="matrix(1.5609397,0,0,1.5609397,-96.767986,-21.993481)"><g
         transform="translate(268.61531,274.16992)"
         id="g71"
         style="fill:#f6a800;fill-opacity:1"><path
           style="stroke:none;fill:#f6a800;fill-opacity:1"
           d="m 3.1875,-7.953125 h -3.125 v -1.84375 h 8.53125 v 1.84375 H 5.453125 V 0 H 3.1875 Z m 0,0"
           id="path70" /></g></g><g
       style="fill:#f6a800;fill-opacity:1"
       id="g74"
       transform="matrix(1.5609397,0,0,1.5609397,-96.767986,-21.993481)"><g
         transform="translate(276.77265,274.16992)"
         id="g73"
         style="fill:#f6a800;fill-opacity:1"><path
           style="stroke:none;fill:#f6a800;fill-opacity:1"
           d="M 7.609375,-2.09375 H 3.0625 L 2.203125,0 H -0.125 l 4.359375,-9.796875 h 2.25 L 10.859375,0 h -2.375 z m -0.703125,-1.734375 -1.5625,-3.75 -1.546875,3.75 z m 0,0"
           id="path72" /></g></g><g
       id="g1723"
       transform="matrix(2.0180142,0,0,2.0180142,-30.432067,-21.389672)"><path
         style="fill:#01bbc6"
         d="m 77.097501,131.80856 c -2.1795,-0.6911 -3.881238,-2.22766 -4.69349,-4.23793 l -0.456302,-1.12932 V 103.16822 79.895123 l 0.530836,-1.132571 c 1.569072,-3.347712 5.398647,-5.100203 8.698066,-3.980412 0.609442,0.206839 4.754033,2.550586 9.210204,5.208327 32.312895,19.271993 29.430415,17.35482 30.603555,20.354853 2.12483,5.43378 0.83216,6.96595 -12.69702,15.04953 l -10.200546,6.09474 V 110.69951 99.909435 l -2.423093,-1.589228 -2.423093,-1.589228 -0.0033,-3.872247 c -0.0021,-2.508826 0.07194,-3.947439 0.210303,-4.0858 0.376667,-0.376668 0.124107,-1.316036 -0.438316,-1.630264 -1.050834,-0.587105 -2.183756,0.998567 -1.260755,1.76459 0.246598,0.204657 0.297104,0.944166 0.297104,4.350201 v 4.103628 l 2.426344,1.632452 2.426344,1.632451 0.09903,10.7289 0.09904,10.72891 -1.78262,1.05792 c -0.980441,0.58186 -1.945662,1.14584 -2.144935,1.2533 -0.349089,0.18824 -0.36048,-0.16095 -0.31208,-9.56677 l 0.05023,-9.76214 -2.906539,-2.35235 -2.90654,-2.35235 v -2.427145 c 0,-2.38405 0.0086,-2.431077 0.485645,-2.648422 1.220185,-0.555954 1.377461,-2.377079 0.284699,-3.296578 -2.036785,-1.713841 -4.537219,1.113487 -2.651998,2.998708 l 0.693241,0.693241 0.01168,2.703641 0.01168,2.703645 2.871193,2.28736 2.871193,2.28736 -0.01619,9.79308 c -0.01232,7.45198 -0.07411,9.84513 -0.258462,10.01081 -0.133248,0.11974 -1.490103,0.97473 -3.015234,1.89997 l -2.772965,1.68224 0.0526,-11.75606 0.0526,-11.75605 -2.874477,-2.12532 -2.874476,-2.12533 -6.06e-4,-4.739586 -6.06e-4,-4.73959 0.693241,-0.634984 c 1.789038,-1.638695 -0.167222,-4.38503 -2.307582,-3.239544 -1.06593,0.570469 -1.152584,2.393562 -0.153718,3.234052 l 0.579645,0.48774 v 5.118287 5.118285 l 2.871999,2.14457 2.871999,2.14456 v 11.76701 11.76701 l -1.039861,0.66324 c -0.571924,0.36478 -1.396386,0.84447 -1.832138,1.06596 l -0.792275,0.40273 0.09903,-5.25106 0.09904,-5.25105 -1.336965,-0.59754 -1.336965,-0.59754 v -4.54735 c 0,-4.24742 0.02613,-4.58055 0.396137,-5.05094 1.063061,-1.35147 -0.68748,-2.99897 -1.943341,-1.82896 -0.539847,0.50295 -0.553525,1.17274 -0.03735,1.82896 0.372091,0.47303 0.396138,0.80352 0.396138,5.44428 v 4.94068 l 1.336965,0.61606 1.336965,0.61607 -0.05615,4.95919 -0.05615,4.95918 -0.934197,-0.0132 c -0.513809,-0.007 -1.290722,-0.1263 -1.726473,-0.26447 z"
         id="path1763" /><path
         style="fill:#01bbc6"
         d="m 100.9961,139.43326 c -2.175735,-0.20652 -2.265403,-0.50738 -2.173397,-7.29235 0.08144,-6.00597 -0.368422,-5.49655 4.871187,-5.5161 14.29519,-0.0533 24.80249,-10.03243 24.80249,-23.55563 0,-13.755631 -10.96537,-24.103946 -25.02427,-23.616072 -4.71459,0.163607 -4.487996,0.456044 -4.487996,-5.7921 v -4.531889 l 0.544502,-0.428305 c 0.491504,-0.386619 0.669824,-0.412116 1.832134,-0.261962 2.81247,0.363329 7.98085,-0.198226 9.20467,-1.000105 0.24588,-0.161107 0.90688,-1.354894 1.5639,-2.824439 1.7646,-3.946907 1.82628,-3.974659 7.15686,-3.220135 3.19847,0.452733 3.11705,0.350408 3.81241,4.791191 0.45838,2.927328 0.45591,2.92348 2.61857,4.075796 l 1.59307,0.848825 2.62415,-1.599016 c 3.4188,-2.083229 3.04625,-2.149883 6.32839,1.132251 3.21553,3.215532 3.13304,2.860694 1.35913,5.84659 -1.8487,3.111785 -1.81537,2.854559 -0.60811,4.693433 1.38605,2.111222 1.40059,2.118298 4.66964,2.273567 4.09987,0.19473 3.89633,0.02623 5.23418,4.333212 1.07265,3.453233 1.10256,3.353267 -1.55714,5.204652 -3.24929,2.261795 -3.05553,1.965108 -2.95739,4.528581 0.10649,2.781615 0.11013,2.787135 2.95207,4.486485 3.28123,1.96201 3.16296,1.67689 2.26604,5.46266 -1.10492,4.6637 -0.79764,4.36267 -4.79941,4.70192 -3.38901,0.28731 -3.46367,0.32841 -4.62257,2.54429 l -0.88876,1.69938 1.26393,2.5358 c 2.07231,4.15764 2.23447,3.54442 -2.20262,8.32932 -1.03668,1.11794 -1.442,1.09526 -4.49036,-0.25123 -3.00942,-1.3293 -2.68603,-1.33778 -4.91023,0.12885 l -1.84196,1.21458 v 3.40551 c 0,4.14053 0.20747,3.83827 -3.68427,5.36761 -3.81337,1.49854 -3.46364,1.58996 -6.11881,-1.59942 -2.2482,-2.70052 -1.93987,-2.6237 -6.77132,-1.68702 -0.0348,0.007 -1.12502,1.98555 -2.29544,4.16636 -0.90762,1.69115 -1.25914,1.78498 -5.26327,1.40491 z"
         id="path1762" /><path
         style="fill:#01283d"
         d="m 97.003425,111.33406 v -10.65068 l -2.475861,-1.658887 -2.475861,-1.658885 v -4.105903 c 0,-3.408058 -0.0505,-4.147812 -0.297104,-4.352477 -0.923001,-0.766023 0.209921,-2.351695 1.260755,-1.76459 0.562423,0.314228 0.814983,1.253596 0.438316,1.630264 -0.138362,0.138361 -0.212409,1.576974 -0.210303,4.0858 l 0.0033,3.872247 2.423093,1.589163 2.423093,1.589163 0.0536,10.691105 0.0536,10.69111 -0.422161,0.34662 c -0.232189,0.19065 -0.501418,0.34662 -0.598288,0.34662 -0.100605,0 -0.176126,-4.56689 -0.176126,-10.65067 z"
         id="path1747" /><path
         style="fill:#01283d"
         d="m 91.66116,115.50123 0.01596,-9.8382 -2.871095,-2.28728 -2.871094,-2.28728 -0.01168,-2.703645 -0.01168,-2.703641 -0.693241,-0.693241 c -1.885279,-1.885279 0.61515,-4.712602 2.651998,-2.998708 1.092762,0.919499 0.935486,2.740624 -0.284699,3.296578 -0.477027,0.217348 -0.485645,0.264349 -0.485645,2.648798 v 2.427519 l 2.996793,2.42424 2.996793,2.42424 -0.123386,1.3061 c -0.06786,0.71835 -0.124583,5.09417 -0.126046,9.72403 l -0.0027,8.41792 -0.598137,0.34039 -0.598136,0.34038 z"
         id="path1746" /><path
         style="fill:#01283d"
         d="m 84.525084,117.95836 v -11.77804 l -2.871999,-2.14456 -2.871999,-2.14457 v -5.118285 -5.118287 l -0.579645,-0.48774 c -0.998866,-0.84049 -0.912212,-2.663583 0.153718,-3.234052 2.14036,-1.145486 4.09662,1.600849 2.307582,3.239544 l -0.693241,0.634984 6.06e-4,4.73959 6.06e-4,4.739586 2.871393,2.12304 2.871393,2.12304 v 11.67878 11.67878 l -0.594207,0.42311 -0.594207,0.42312 z"
         id="path1745" /><path
         style="fill:#01283d"
         d="m 79.778339,127.09806 0.01915,-4.9572 -1.300478,-0.60423 -1.300478,-0.60423 v -4.939 c 0,-4.63909 -0.02406,-4.96959 -0.396138,-5.44261 -0.516177,-0.65622 -0.502499,-1.32601 0.03735,-1.82896 1.255861,-1.17001 3.006402,0.47749 1.943341,1.82896 -0.370011,0.47039 -0.396137,0.80352 -0.396137,5.05094 v 4.54735 l 1.336965,0.59758 1.336965,0.59758 -0.09904,5.20842 -0.09903,5.20843 -0.550812,0.14708 -0.550812,0.14709 z"
         id="path1744" /><text
         xml:space="preserve"
         transform="matrix(0.26458333,0,0,0.26458333,-0.88317625,24.682906)"
         id="text1747"
         style="font-style:normal;font-variant:normal;font-weight:normal;font-stretch:normal;font-size:21.3333px;font-family:Marlett;-inkscape-font-specification:Marlett;white-space:pre;shape-inside:url(#rect1747);fill:none;stroke:#000000;stroke-width:2.8989;stroke-dasharray:11.5955, 5.79779, 2.8989, 5.79779" /></g></g></svg>
